<svg width="20" height="20" viewBox="0 0 20 20" fill="none" xmlns="http://www.w3.org/2000/svg">
<g clip-path="url(#clip0_552_2688)">
<path d="M2 2H2.00667" stroke="black" stroke-width="2.66667" stroke-linecap="square"/>
<path d="M2 4.6665H2.00667" stroke="black" stroke-width="2.66667" stroke-linecap="square"/>
<path d="M4.66602 2H4.67268" stroke="black" stroke-width="2.66667" stroke-linecap="square"/>
<path d="M4.66602 4.6665H4.67268" stroke="black" stroke-opacity="0.25098" stroke-width="2.66667" stroke-linecap="square"/>
<path d="M4.66602 7.3335H4.67268" stroke="black" stroke-width="2.66667" stroke-linecap="square"/>
<path d="M7.33301 2H7.33967" stroke="black" stroke-width="2.66667" stroke-linecap="square"/>
<path d="M7.33301 4.6665H7.33967" stroke="black" stroke-opacity="0.25098" stroke-width="2.66667" stroke-linecap="square"/>
<path d="M7.33301 7.3335H7.33967" stroke="black" stroke-opacity="0.25098" stroke-width="2.66667" stroke-linecap="square"/>
<path d="M7.33301 10H7.33967" stroke="black" stroke-width="2.66667" stroke-linecap="square"/>
<path d="M7.33301 12.6665H7.33967" stroke="black" stroke-width="2.66667" stroke-linecap="square"/>
<path d="M10 2H10.0067" stroke="black" stroke-width="2.66667" stroke-linecap="square"/>
<path d="M10 7.3335H10.0067" stroke="black" stroke-opacity="0.25098" stroke-width="2.66667" stroke-linecap="square"/>
<path d="M10 10H10.0067" stroke="black" stroke-opacity="0.25098" stroke-width="2.66667" stroke-linecap="square"/>
<path d="M10 12.6665H10.0067" stroke="black" stroke-opacity="0.25098" stroke-width="2.66667" stroke-linecap="square"/>
<path d="M12.666 2H12.6727" stroke="black" stroke-width="2.66667" stroke-linecap="square"/>
<path d="M12.666 10H12.6727" stroke="black" stroke-width="2.66667" stroke-linecap="square"/>
<path d="M12.666 12.6665H12.6727" stroke="black" stroke-width="2.66667" stroke-linecap="square"/>
<path d="M15.333 2H15.3397" stroke="black" stroke-width="2.66667" stroke-linecap="square"/>
<path d="M15.333 7.3335H15.3397" stroke="black" stroke-width="2.66667" stroke-linecap="square"/>
<path d="M18 2H18.0067" stroke="black" stroke-width="2.66667" stroke-linecap="square"/>
<path d="M18 4.6665H18.0067" stroke="black" stroke-width="2.66667" stroke-linecap="square"/>
<path d="M7.33301 18H7.33967" stroke="black" stroke-width="2.66667" stroke-linecap="square"/>
<path d="M10 18H10.0067" stroke="black" stroke-width="2.66667" stroke-linecap="square"/>
<path d="M7.33301 15.3335H7.33967" stroke="black" stroke-width="2.66667" stroke-linecap="square"/>
<path d="M12.666 15.3335H12.6727" stroke="black" stroke-width="2.66667" stroke-linecap="square"/>
</g>
<defs>
<clipPath id="clip0_552_2688">
<rect width="20" height="20" fill="white"/>
</clipPath>
</defs>
</svg>
