<svg width="16" height="16" viewBox="0 0 16 16" fill="none" xmlns="http://www.w3.org/2000/svg">
  <path d="M9 0h3v1H9zM14 0h4v1H14zM7 1h2v1H7zM12 1h2v1H12zM18 1h1v1H18zM6 2h2v1H6zM15 2h2v1H15zM18 2h2v1H18zM5 3h1v1H5zM8 3h3v1H8zM13 3h4v1H13zM18 3h2v1H18zM4 4h1v1H4zM7 4h4v1H7zM12 4h5v1H12zM18 4h2v1H18zM3 5h2v1H3zM6 5h5v1H6zM12 5h5v1H12zM18 5h2v1H18zM3 6h1v1H3zM6 6h4v1H6zM11 6h5v1H11zM18 6h2v1H18zM3 7h1v1H3zM5 7h4v1H5zM11 7h5v1H11zM17 7h2v1H17zM2 8h1v1H2zM5 8h4v1H5zM10 8h5v1H10zM16 8h3v1H16zM2 9h1v1H2zM5 9h2v1H5zM10 9h4v1H10zM16 9h2v1H16zM2 10h1v1H2zM14 10h3v1H14zM1 11h2v1H1zM13 11h2v1H13zM0 12h2v1H0zM4 12h1v1H4zM8 12h1v1H8zM14 12h2v1H14zM0 13h1v1H0zM4 13h1v1H4zM8 13h1v1H8zM14 13h2v1H14zM0 14h1v1H0zM4 14h1v1H4zM8 14h1v1H8zM14 14h2v1H14zM1 15h1v1H1zM13 15h3v1H13zM1 16h2v1H1zM12 16h3v1H12zM2 17h12v1H2z" transform="translate(0 0.666695) scale(.8)" fill="black" shape-rendering="crispEdges"/>
</svg>
