<svg width="24" height="24" viewBox="0 0 24 24" fill="none" xmlns="http://www.w3.org/2000/svg">
<path d="M18.71 5.29C18.6175 5.1973 18.5076 5.12375 18.3866 5.07357C18.2656 5.02339 18.136 4.99756 18.005 4.99756C17.874 4.99756 17.7443 5.02339 17.6234 5.07357C17.5024 5.12375 17.3925 5.1973 17.3 5.29L6.3 16.29C6.20732 16.3834 6.13399 16.4943 6.08423 16.6161C6.03446 16.7379 6.00924 16.8684 6.01 17V20C6.01 20.55 6.46 21 7.01 21H10.01C10.28 21 10.53 20.89 10.72 20.71L21.72 9.71C21.8127 9.61749 21.8862 9.5076 21.9364 9.38662C21.9866 9.26565 22.0124 9.13597 22.0124 9.005C22.0124 8.87403 21.9866 8.74435 21.9364 8.62338C21.8862 8.5024 21.8127 8.39251 21.72 8.3L18.72 5.3L18.71 5.29ZM9.59 19H8V17.41L15.5 9.91L17.09 11.5L9.59 19ZM18.5 10.09L16.91 8.5L18 7.41L19.59 9L18.5 10.09ZM7.77 10.15C9.5 8.72 11 7.49 11 6C11 2.19 3.5 2 2 2V4C5.31 4 9 4.83 9 6C9 6.54 7.49 7.78 6.5 8.6C4.44 10.3 2.1 12.23 2.26 14.67C2.35 16.07 3.26 17.34 5 18.53V17C5 16.7 5.07 16.41 5.2 16.15C4.61 15.59 4.29 15.05 4.26 14.54C4.17 13.13 6.09 11.54 7.78 10.15H7.77Z" fill="black"/>
</svg>
