<svg width="108" height="4" viewBox="0 0 108 4" fill="none" xmlns="http://www.w3.org/2000/svg">
  <path d="M0.447266 2.37573L2.4269 1.38592C3.66511 0.766809 5.14684 0.900417 6.25434 1.73104L6.44727 1.87573C7.63245 2.76462 9.26208 2.76462 10.4473 1.87573C11.6325 0.986843 13.2621 0.986843 14.4473 1.87573C15.6325 2.76462 17.2621 2.76462 18.4473 1.87573C19.6325 0.986843 21.2621 0.986843 22.4473 1.87573C23.6325 2.76462 25.2621 2.76462 26.4473 1.87573L26.6402 1.73104C27.7477 0.900417 29.2294 0.766809 30.4676 1.38592L32.4473 2.37573" stroke="#FF55BE" stroke-width="2"/>
  <path d="M25.4473 2.37573L27.4269 1.38592C28.6651 0.766809 30.1468 0.900417 31.2543 1.73104L31.4473 1.87573C32.6325 2.76462 34.2621 2.76462 35.4473 1.87573C36.6325 0.986843 38.2621 0.986843 39.4473 1.87573C40.6325 2.76462 42.2621 2.76462 43.4473 1.87573C44.6325 0.986843 46.2621 0.986843 47.4473 1.87573C48.6325 2.76462 50.2621 2.76462 51.4473 1.87573L51.6402 1.73104C52.7477 0.900417 54.2294 0.766809 55.4676 1.38592L57.4473 2.37573" stroke="#FF55BE" stroke-width="2"/>
  <path d="M50.4473 2.37573L52.4269 1.38592C53.6651 0.766809 55.1468 0.900417 56.2543 1.73104L56.4473 1.87573C57.6325 2.76462 59.2621 2.76462 60.4473 1.87573C61.6325 0.986843 63.2621 0.986843 64.4473 1.87573C65.6325 2.76462 67.2621 2.76462 68.4473 1.87573C69.6325 0.986843 71.2621 0.986843 72.4473 1.87573C73.6325 2.76462 75.2621 2.76462 76.4473 1.87573L76.6402 1.73104C77.7477 0.900417 79.2294 0.766809 80.4676 1.38592L82.4473 2.37573" stroke="#FF55BE" stroke-width="2"/>
  <path d="M75.4473 2.37573L77.4269 1.38592C78.6651 0.766809 80.1468 0.900417 81.2543 1.73104L81.4473 1.87573C82.6325 2.76462 84.2621 2.76462 85.4473 1.87573C86.6325 0.986843 88.2621 0.986843 89.4473 1.87573C90.6325 2.76462 92.2621 2.76462 93.4473 1.87573C94.6325 0.986843 96.2621 0.986843 97.4473 1.87573C98.6325 2.76462 100.262 2.76462 101.447 1.87573L101.64 1.73104C102.748 0.900417 104.229 0.766809 105.468 1.38592L107.447 2.37573" stroke="#FF55BE" stroke-width="2"/>
</svg>
