<svg width="18" height="18" viewBox="0 0 18 18" fill="none" xmlns="http://www.w3.org/2000/svg">
<path d="M8.2268 15.2921C9.0668 14.4521 9.5093 13.1546 9.3893 11.9246L15.8093 5.50461C16.7243 4.58961 16.7243 3.10461 15.8093 2.19711C14.8943 1.28961 13.4093 1.28211 12.5018 2.19711L5.8493 8.83461C5.3168 8.87961 4.7918 9.03711 4.3418 9.31461C3.4643 9.85461 2.9843 10.7321 2.9843 11.7821C2.9843 12.0071 2.9993 12.2246 3.0143 12.4271C3.0743 13.1996 3.0968 13.4921 1.9118 14.0846C1.6718 14.2046 1.5143 14.4371 1.4993 14.6996C1.4843 14.9621 1.6043 15.2171 1.8218 15.3671C2.5718 15.8846 3.8918 16.4846 5.2868 16.4846C6.2993 16.4846 7.3418 16.1696 8.2268 15.2846V15.2921ZM13.5668 3.24711C13.8968 2.91711 14.4293 2.91711 14.7593 3.24711C15.0893 3.57711 15.0893 4.10961 14.7593 4.43211L8.8643 10.3271C8.55723 9.84657 8.13088 9.4538 7.6268 9.18711L13.5668 3.24711ZM4.5143 12.3146C4.49642 12.1376 4.48641 11.96 4.4843 11.7821C4.4843 11.2571 4.7018 10.8596 5.1293 10.5896C5.6393 10.2746 6.3743 10.2221 6.8618 10.4696C7.3493 10.7096 7.6043 11.0771 7.7468 11.4296L7.7093 11.4671L7.7843 11.5421C7.8218 11.6621 7.8518 11.7821 7.8743 11.8946C8.0093 12.7121 7.7093 13.6721 7.1543 14.2271C6.0743 15.3071 4.6718 15.0521 3.7193 14.6846C4.5368 13.9496 4.5668 13.1921 4.4993 12.3146H4.5143Z" fill="black"/>
</svg>
