<svg width="18" height="18" viewBox="0 0 18 18" fill="none" xmlns="http://www.w3.org/2000/svg">
<path d="M14.5574 2.25027C13.9724 1.66527 13.0199 1.66527 12.4349 2.25027L10.4924 4.19277L9.52494 3.22527L8.46744 4.28277L9.43494 5.25027L3.21744 11.4678C3.11994 11.5653 3.05244 11.6853 3.02244 11.8128L2.27244 14.8128C2.20494 15.0678 2.27994 15.3378 2.46744 15.5253C2.60994 15.6678 2.80494 15.7428 2.99994 15.7428C3.05994 15.7428 3.11994 15.7203 3.17994 15.7203L6.17994 14.9703C6.31494 14.9403 6.43494 14.8728 6.52494 14.7753L12.7424 8.55777L13.7099 9.52527L14.7674 8.46777L13.7999 7.50027L15.7424 5.55777C16.3274 4.97277 16.3274 4.02027 15.7424 3.43527L14.5499 2.24277L14.5574 2.25027ZM5.60994 13.5753L4.02744 13.9728L4.42494 12.3903L10.4999 6.31527L11.6924 7.50777L5.61744 13.5828L5.60994 13.5753Z" fill="black"/>
</svg>
