<svg width="18" height="18" viewBox="0 0 18 18" fill="none" xmlns="http://www.w3.org/2000/svg">
<path d="M15.7493 9.30746C16.3343 8.72246 16.3343 7.76996 15.7493 7.18496L11.5568 2.99246C10.9718 2.40746 10.0193 2.40746 9.4343 2.99246L2.2493 10.1925C1.6643 10.7775 1.6643 11.73 2.2493 12.315L5.4668 15.5325C5.6093 15.675 5.7968 15.75 5.9993 15.75H16.4993V14.25H10.8068L15.7493 9.30746ZM10.4993 4.05746L14.6918 8.24996L12.7493 10.1925L8.5568 5.99996L10.4993 4.05746ZM6.3068 14.25L3.3068 11.25L7.4993 7.05746L11.6918 11.25L8.6918 14.25H6.3143H6.3068Z" fill="black"/>
</svg>
