<svg width="18" height="18" viewBox="0 0 18 18" fill="none" xmlns="http://www.w3.org/2000/svg">
<path d="M8.2268 15.2926C9.1268 14.3926 9.5768 12.9676 9.3668 11.6626C9.1868 10.5376 8.5343 9.63758 7.5368 9.14258C6.5843 8.66258 5.2943 8.73758 4.3418 9.33008C3.4643 9.87008 2.9843 10.7476 2.9843 11.7976C2.9843 12.0226 2.9993 12.2401 3.0143 12.4426C3.0743 13.2151 3.0968 13.5076 1.9118 14.1001C1.6718 14.2201 1.5143 14.4526 1.4993 14.7151C1.4843 14.9776 1.6043 15.2326 1.8218 15.3826C2.5718 15.9001 3.8918 16.5001 5.2868 16.5001C6.2993 16.5001 7.3418 16.1851 8.2268 15.3001V15.2926Z" fill="white"/>
<path d="M12.5018 2.18246L6.5918 8.09246C7.0493 8.14496 7.4843 8.26496 7.8743 8.45996C9.0068 9.02996 9.7643 10.02 10.0418 11.2575L15.8093 5.48996C16.7243 4.57496 16.7243 3.08996 15.8093 2.18246C14.8943 1.27496 13.4093 1.26746 12.5018 2.18246Z" fill="white"/>
</svg>
