<svg preserveAspectRatio="none" overflow="visible" style="display: block;" width="16" height="16" viewBox="0 0 16 16" fill="none" xmlns="http://www.w3.org/2000/svg">
<g id="Frame">
<path id="Vector" d="M11.2203 4.77967C11.1537 4.71301 11.0803 4.64634 11.007 4.57967C11.207 4.23967 11.3337 3.83301 11.3337 3.33301C11.3337 1.37967 9.74032 0.666341 8.66698 0.666341V1.99967C8.97365 1.99967 10.0003 2.11301 10.0003 3.33301C10.0003 3.45301 9.98032 3.55301 9.95365 3.65301C9.22032 3.05967 8.48032 2.56634 7.79365 2.23301C6.13365 1.43967 5.28699 1.77301 4.86699 2.19301C4.75365 2.30634 4.65365 2.44634 4.57365 2.62634C4.49365 2.80634 4.54699 2.69967 4.54699 2.69967C4.52032 2.76634 4.50032 2.83301 4.48032 2.90634L1.66032 11.5597C1.53211 11.9462 1.51475 12.3609 1.61019 12.7568C1.70563 13.1528 1.91006 13.514 2.20032 13.7997C2.62032 14.2197 3.18032 14.4463 3.75365 14.4463C3.98032 14.4463 4.21365 14.413 4.44032 14.3397L13.2003 11.4863C13.2537 11.4663 13.3137 11.453 13.367 11.433H13.3803C13.5603 11.353 13.7003 11.253 13.8137 11.1397C14.2337 10.7197 14.567 9.87301 13.7737 8.21301C13.4962 7.64894 13.1682 7.11118 12.7937 6.60634C13.3003 6.25967 13.927 5.99967 14.6803 5.99967V4.66634C13.567 4.66634 12.6603 5.05967 11.9603 5.55967C11.727 5.29967 11.487 5.03967 11.2337 4.77967H11.2203ZM7.90032 11.4463C7.62032 11.313 7.30698 11.1197 6.99365 10.8863C6.65365 10.633 6.31365 10.3397 5.98698 10.013C5.66032 9.68634 5.36698 9.35301 5.11365 9.00634C4.90046 8.72133 4.71306 8.41791 4.55365 8.09967C4.43365 7.84634 4.38032 7.67301 4.36032 7.55967L5.06032 5.40634C5.59365 6.41967 6.42032 7.51967 7.44698 8.54634C8.47365 9.57301 9.57365 10.3997 10.587 10.933L8.43365 11.633C8.32698 11.613 8.14698 11.5663 7.89365 11.4397L7.90032 11.4463ZM4.02698 13.073C3.87388 13.1226 3.71005 13.1289 3.55357 13.0913C3.39709 13.0537 3.25406 12.9735 3.14026 12.8597C3.02646 12.7459 2.94631 12.6029 2.90868 12.4464C2.87104 12.2899 2.87738 12.1261 2.92698 11.973L3.76698 9.39301C3.85365 9.52634 3.94032 9.65967 4.04032 9.79967C4.33365 10.193 4.66698 10.5797 5.04032 10.953C5.41365 11.3263 5.80032 11.6597 6.19365 11.953C6.33365 12.053 6.46698 12.1397 6.60032 12.2263L4.02032 13.0663L4.02698 13.073ZM12.867 10.193C12.867 10.193 12.8603 10.193 12.8537 10.1997L12.747 10.233C12.547 10.2597 12.1203 10.2063 11.4537 9.89301C10.5003 9.43967 9.41365 8.62634 8.39365 7.60634C7.37365 6.58634 6.56698 5.49967 6.10698 4.54634C5.78698 3.87967 5.73365 3.45301 5.76698 3.25301L5.80032 3.14634C5.80032 3.14634 5.80032 3.13301 5.80698 3.13301C5.83365 3.10634 5.90698 3.08634 6.02698 3.08634C6.25365 3.08634 6.64698 3.16634 7.22032 3.43301C7.75365 3.68634 8.33365 4.06634 8.92032 4.51967C8.46698 4.65301 8.04032 4.65967 8.00698 4.65967V5.99301C8.56698 5.99301 9.36032 5.85967 10.0403 5.48634C10.1203 5.56634 10.207 5.63301 10.287 5.71301C10.527 5.95301 10.7537 6.19301 10.967 6.43967C10.4003 7.07301 10.107 7.63967 10.0803 7.69301L11.2737 8.28634C11.2737 8.28634 11.4603 7.92634 11.807 7.50634C12.1137 7.93967 12.3803 8.36634 12.5737 8.77301C12.987 9.63967 12.9537 10.1063 12.8737 10.1863L12.867 10.193Z" fill="black"/>
</g>
</svg>
