<svg width="22" height="22" viewBox="0 0 22 22" fill="none" xmlns="http://www.w3.org/2000/svg">
<path d="M12.06 1.88998C9.22496 1.51198 6.44396 2.42998 4.43696 4.43698C2.42996 6.44398 1.50296 9.22498 1.88996 12.06C2.36696 15.561 5.00396 18.549 8.45096 19.485C9.22496 19.692 10.026 19.8 10.809 19.8H10.935C11.862 19.782 12.708 19.305 13.203 18.513C13.689 17.721 13.743 16.758 13.338 15.921L13.158 15.543C12.753 14.697 13.068 13.923 13.509 13.491C13.95 13.059 14.715 12.735 15.561 13.14L15.93 13.32C16.767 13.725 17.739 13.671 18.522 13.185C18.9105 12.9464 19.2324 12.6132 19.4574 12.2167C19.6825 11.8201 19.8034 11.3729 19.809 10.917C19.818 10.089 19.71 9.25198 19.494 8.43298C18.558 4.98598 15.579 2.35798 12.069 1.87198L12.06 1.88998ZM6.59696 13.284C6.10196 13.284 5.69696 12.879 5.69696 12.384C5.69696 11.889 6.10196 11.484 6.59696 11.484C7.09196 11.484 7.49696 11.889 7.49696 12.384C7.49696 12.879 7.09196 13.284 6.59696 13.284ZM6.65996 10.062C6.10196 10.062 5.65196 9.61198 5.65196 9.05398C5.65196 8.49598 6.10196 8.04598 6.65996 8.04598C7.21796 8.04598 7.66796 8.49598 7.66796 9.05398C7.66796 9.61198 7.21796 10.062 6.65996 10.062ZM9.18896 7.71298C8.89059 7.71298 8.60444 7.59446 8.39346 7.38348C8.18248 7.1725 8.06396 6.88635 8.06396 6.58798C8.06396 6.28961 8.18248 6.00347 8.39346 5.79249C8.60444 5.58151 8.89059 5.46298 9.18896 5.46298C9.48733 5.46298 9.77347 5.58151 9.98445 5.79249C10.1954 6.00347 10.314 6.28961 10.314 6.58798C10.314 6.88635 10.1954 7.1725 9.98445 7.38348C9.77347 7.59446 9.48733 7.71298 9.18896 7.71298ZM12.843 8.03698C12.159 8.03698 11.601 7.47898 11.601 6.79498C11.601 6.11098 12.159 5.55298 12.843 5.55298C13.527 5.55298 14.085 6.11098 14.085 6.79498C14.085 7.47898 13.527 8.03698 12.843 8.03698Z" fill="white"/>
</svg>
