<svg width="22" height="22" viewBox="0 0 22 22" fill="none" xmlns="http://www.w3.org/2000/svg">
  <path d="M12.059 1.88996C9.21498 1.50296 6.44298 2.42996 4.43598 4.43696C2.42898 6.44396 1.50198 9.22496 1.88898 12.06C2.36598 15.561 5.00298 18.549 8.44998 19.485C9.22398 19.692 10.016 19.8 10.808 19.8H10.934C11.861 19.782 12.707 19.305 13.202 18.513C13.688 17.721 13.742 16.758 13.337 15.921L13.157 15.543C12.752 14.697 13.067 13.923 13.508 13.491C13.949 13.059 14.714 12.735 15.56 13.14L15.929 13.32C16.766 13.725 17.729 13.671 18.521 13.185C18.9096 12.9464 19.2314 12.6132 19.4564 12.2166C19.6815 11.82 19.8024 11.3729 19.808 10.917C19.817 10.089 19.718 9.25196 19.493 8.43296C18.557 4.98596 15.578 2.35796 12.068 1.87196L12.059 1.88996ZM17.567 11.664C17.297 11.826 16.982 11.844 16.703 11.709L16.334 11.529C15.6627 11.201 14.9053 11.0924 14.1688 11.2183C13.4324 11.3443 12.7541 11.6985 12.23 12.231C11.6976 12.7551 11.3433 13.4333 11.2174 14.1698C11.0914 14.9062 11.2001 15.6636 11.528 16.335L11.708 16.713C11.843 16.992 11.825 17.307 11.663 17.577C11.492 17.847 11.222 18 10.907 18.009C10.241 18.027 9.57498 17.937 8.91798 17.757C6.16398 17.01 4.05798 14.625 3.67098 11.826C3.36498 9.54896 4.10298 7.32596 5.71398 5.71496C6.38195 5.04495 7.17601 4.51388 8.05032 4.15242C8.92464 3.79095 9.86189 3.60624 10.808 3.60896C11.141 3.60896 11.483 3.63596 11.825 3.68096C14.624 4.05896 17 6.16496 17.756 8.92796C17.936 9.58496 18.017 10.251 18.008 10.917C18.008 11.232 17.846 11.511 17.576 11.673L17.567 11.664Z" fill="black"/>
  <path d="M6.59734 11.4841C6.35865 11.4841 6.12973 11.5789 5.96095 11.7477C5.79216 11.9165 5.69734 12.1454 5.69734 12.3841C5.69734 12.6228 5.79216 12.8517 5.96095 13.0205C6.12973 13.1893 6.35865 13.2841 6.59734 13.2841C6.83604 13.2841 7.06496 13.1893 7.23374 13.0205C7.40252 12.8517 7.49734 12.6228 7.49734 12.3841C7.49734 12.1454 7.40252 11.9165 7.23374 11.7477C7.06496 11.5789 6.83604 11.4841 6.59734 11.4841ZM6.66034 8.0371C6.39301 8.0371 6.13662 8.1433 5.94758 8.33234C5.75854 8.52137 5.65234 8.77776 5.65234 9.0451C5.65234 9.31244 5.75854 9.56883 5.94758 9.75787C6.13662 9.9469 6.39301 10.0531 6.66034 10.0531C6.92768 10.0531 7.18407 9.9469 7.37311 9.75787C7.56214 9.56883 7.66834 9.31244 7.66834 9.0451C7.66834 8.77776 7.56214 8.52137 7.37311 8.33234C7.18407 8.1433 6.92768 8.0371 6.66034 8.0371ZM9.18934 5.4541C9.04161 5.4541 8.89532 5.4832 8.75882 5.53974C8.62233 5.59627 8.49831 5.67914 8.39385 5.78361C8.28938 5.88807 8.20652 6.01209 8.14998 6.14858C8.09344 6.28507 8.06434 6.43136 8.06434 6.5791C8.06434 6.72684 8.09344 6.87313 8.14998 7.00962C8.20652 7.14611 8.28938 7.27013 8.39385 7.3746C8.49831 7.47906 8.62233 7.56193 8.75882 7.61847C8.89532 7.675 9.04161 7.7041 9.18934 7.7041C9.48771 7.7041 9.77386 7.58558 9.98484 7.3746C10.1958 7.16362 10.3143 6.87747 10.3143 6.5791C10.3143 6.28073 10.1958 5.99458 9.98484 5.78361C9.77386 5.57263 9.48771 5.4541 9.18934 5.4541ZM12.8433 5.5531C12.5139 5.5531 12.198 5.68395 11.9651 5.91687C11.7322 6.1498 11.6013 6.4657 11.6013 6.7951C11.6013 7.1245 11.7322 7.44041 11.9651 7.67333C12.198 7.90625 12.5139 8.0371 12.8433 8.0371C13.1727 8.0371 13.4886 7.90625 13.7216 7.67333C13.9545 7.44041 14.0853 7.1245 14.0853 6.7951C14.0853 6.4657 13.9545 6.1498 13.7216 5.91687C13.4886 5.68395 13.1727 5.5531 12.8433 5.5531Z" fill="black"/>
</svg>
