<svg width="22" height="22" viewBox="0 0 22 22" fill="none" xmlns="http://www.w3.org/2000/svg">
<path d="M5.39961 19.8H16.1996C17.1896 19.8 17.9996 18.99 17.9996 18V9.90005C17.9996 8.91005 17.1896 8.10005 16.1996 8.10005H15.2996V6.30005C15.2996 3.81605 13.2836 1.80005 10.7996 1.80005C8.31561 1.80005 6.29961 3.81605 6.29961 6.30005V8.10005H5.39961C4.40961 8.10005 3.59961 8.91005 3.59961 9.90005V18C3.59961 18.99 4.40961 19.8 5.39961 19.8ZM11.6996 15.948V18H9.89961V15.948C9.62756 15.791 9.40135 15.5655 9.24346 15.2939C9.08558 15.0223 9.00151 14.7142 8.99961 14.4C8.99961 13.41 9.80961 12.6 10.7996 12.6C11.7896 12.6 12.5996 13.41 12.5996 14.4C12.5977 14.7142 12.5136 15.0223 12.3558 15.2939C12.1979 15.5655 11.9717 15.791 11.6996 15.948ZM8.09961 6.30005C8.09961 4.81505 9.31461 3.60005 10.7996 3.60005C12.2846 3.60005 13.4996 4.81505 13.4996 6.30005V8.10005H8.09961V6.30005Z" fill="white"/>
</svg>
