<svg width="183" height="64" viewBox="0 0 183 64" fill="none" xmlns="http://www.w3.org/2000/svg">
<g data-figma-bg-blur-radius="5.44615">
<path d="M2.72266 13.1614C2.72266 8.14835 6.78653 4.08447 11.7996 4.08447H46.9727H67.5764C69.8416 4.08447 72.0251 4.93151 73.6977 6.45919L77.5601 9.98685C79.2327 11.5145 81.4162 12.3616 83.6815 12.3616H91.2227H98.7639C101.029 12.3616 103.213 11.5145 104.885 9.98685L108.748 6.45919C110.42 4.93151 112.604 4.08447 114.869 4.08447H135.473H170.646C175.659 4.08447 179.723 8.14835 179.723 13.1614V46.6287C179.723 55.4652 172.559 62.6287 163.723 62.6287H18.7227C9.8861 62.6287 2.72266 55.4652 2.72266 46.6287V13.1614Z" fill="url(#paint0_linear_455_6466)" fill-opacity="0.16" shape-rendering="crispEdges"/>
<path d="M11.7998 4.58447H67.5762C69.7167 4.58447 71.7799 5.38508 73.3604 6.82861L77.2227 10.356C78.9874 11.9678 81.2916 12.8618 83.6816 12.8618H98.7637C101.154 12.8618 103.458 11.9678 105.223 10.356L109.085 6.82861C110.665 5.38508 112.729 4.58447 114.869 4.58447H170.646C175.382 4.58447 179.223 8.42472 179.223 13.1616V46.6284C179.223 55.1888 172.283 62.1284 163.723 62.1284H18.7227C10.1622 62.1284 3.22266 55.1888 3.22266 46.6284V13.1616C3.22266 8.42472 7.0629 4.58447 11.7998 4.58447Z" stroke="url(#paint1_linear_455_6466)" shape-rendering="crispEdges"/>
</g>
<defs>

<clipPath id="bgblur_0_455_6466_clip_path" transform="translate(15.4312 14.0694)"><path d="M2.72266 13.1614C2.72266 8.14835 6.78653 4.08447 11.7996 4.08447H46.9727H67.5764C69.8416 4.08447 72.0251 4.93151 73.6977 6.45919L77.5601 9.98685C79.2327 11.5145 81.4162 12.3616 83.6815 12.3616H91.2227H98.7639C101.029 12.3616 103.213 11.5145 104.885 9.98685L108.748 6.45919C110.42 4.93151 112.604 4.08447 114.869 4.08447H135.473H170.646C175.659 4.08447 179.723 8.14835 179.723 13.1614V46.6287C179.723 55.4652 172.559 62.6287 163.723 62.6287H18.7227C9.8861 62.6287 2.72266 55.4652 2.72266 46.6287V13.1614Z"/>
</clipPath><linearGradient id="paint0_linear_455_6466" x1="91.2227" y1="4.08447" x2="91.2227" y2="62.6287" gradientUnits="userSpaceOnUse">
<stop stop-color="#FFE96B"/>
<stop offset="0.706532" stop-color="#FFC400"/>
</linearGradient>
<linearGradient id="paint1_linear_455_6466" x1="91.2227" y1="4.08447" x2="91.2227" y2="62.6287" gradientUnits="userSpaceOnUse">
<stop stop-color="#FFFBE3"/>
<stop offset="1" stop-color="white" stop-opacity="0"/>
</linearGradient>
</defs>
</svg>
