<svg preserveAspectRatio="none" overflow="visible" style="display: block;" width="130" height="130" viewBox="0 0 130 130" fill="none" xmlns="http://www.w3.org/2000/svg">
<g id="&#232;&#180;&#180;&#229;&#155;&#190;">
<path id="Vector 971" d="M4 87.9992C12.2762 59.4992 52.294 41.0992 77.9988 59.4992C103.704 77.8992 118.893 55.4997 123.274 42" stroke="#CECECE" stroke-dasharray="2 2"/>
<g id="Group 2085665116">
<g id="Group 2085665114">
<path id="Union" d="M52.0564 30.4636C46.3417 25.9835 40.9716 23.0242 36.8615 25.8074C30.8751 29.8616 31.1759 39.8084 38.06 49.9741C40.7905 54.0059 44.0495 57.0414 47.3977 59.1968C45.2898 61.1663 42.83 64.038 42.6328 66.6729C42.0454 74.5212 51.4943 81.6264 63.7377 82.5429C75.981 83.4593 86.3824 77.8399 86.9699 69.9916C87.2805 65.8416 84.7849 61.8994 80.5538 58.9701C90.8729 34.3727 60.9258 -0.961003 52.0564 30.4636Z" fill="#EAEAEA"/>
<path id="Vector 5" d="M53.9004 67.4434L55.6159 71.3152" stroke="#CECECE" stroke-width="4.56011" stroke-linecap="round"/>
<path id="Vector 6" d="M65.9814 66.7441L67.9445 70.8085" stroke="#CECECE" stroke-width="4.56011" stroke-linecap="round"/>
<ellipse id="Ellipse 4" cx="14.2384" cy="6.17073" rx="14.2384" ry="6.17073" transform="matrix(-0.558247 -0.829675 -0.829675 0.558247 61.4033 52.8418)" fill="#CECECE"/>
<ellipse id="Ellipse 5" cx="15.9625" cy="8.02452" rx="15.9625" ry="8.02452" transform="matrix(-0.379371 -0.925245 -0.925245 0.379371 81.0273 51.1543)" fill="#CECECE"/>
</g>
<g id="Group 2085665115">
<rect id="Rectangle 34625332" x="42.7666" y="75.7129" width="42.4" height="27.2" rx="2.4" transform="rotate(-1.6285 42.7666 75.7129)" fill="#D9D9D9"/>
<circle id="Ellipse 10" cx="53.7906" cy="83.4027" r="3.2" transform="rotate(-1.6285 53.7906 83.4027)" fill="#EAEAEA"/>
<path id="Vector 970" d="M54.4979 94.1457L48.3378 102.764L84.7231 101.729L75.4808 89.1258C74.1326 87.2873 71.349 87.4082 70.1653 89.3568L64.7965 98.195C64.5189 98.652 63.8798 98.7132 63.5204 98.3173L59.4707 93.8557C58.0996 92.3452 55.6841 92.4861 54.4979 94.1457Z" fill="#CECECE"/>
</g>
<circle id="Ellipse 11" cx="42.894" cy="85.8959" r="5.2" transform="rotate(4.28069 42.894 85.8959)" fill="#EAEAEA"/>
<circle id="Ellipse 12" cx="85.7429" cy="78.5736" r="4.4" transform="rotate(4.28069 85.7429 78.5736)" fill="#EAEAEA"/>
<path id="Rectangle 34625333" d="M43.0136 101.797C41.3866 100.459 41.2359 98.3185 41.7691 96.2803C43.037 91.4343 46.206 89.9247 50.3577 90.5428C52.2611 90.8262 54.0102 91.7129 54.6331 93.5336L57.1918 101.012C57.837 102.898 57.1194 104.981 55.4495 106.07L54.0847 106.959C52.4918 107.997 50.4096 107.882 48.9414 106.674L43.0136 101.797Z" fill="#EAEAEA"/>
<path id="Rectangle 34625334" d="M81.3797 91.3513C81.7522 89.2777 83.5459 88.1001 85.5847 87.5692C90.4322 86.3069 93.298 88.3339 94.7878 92.258C95.4709 94.0571 95.5521 96.0164 94.2681 97.4497L88.9939 103.337C87.664 104.822 85.4958 105.214 83.7303 104.289L82.2872 103.533C80.6031 102.65 79.6862 100.777 80.0224 98.9061L81.3797 91.3513Z" fill="#EAEAEA"/>
</g>
<g id="Group 2085665117">
<path id="Vector 972" d="M127.465 38.9058C128.16 38.5566 128.957 39.1447 128.829 39.9116L126.923 51.3105C126.83 51.8668 126.274 52.2199 125.731 52.0687L120.656 50.6569C120.128 50.5099 119.833 49.9475 120.013 49.4297L120.605 47.7272C120.61 47.7141 120.61 47.7055 120.61 47.7024C120.61 47.6994 120.61 47.697 120.609 47.6946C120.607 47.6889 120.6 47.6782 120.586 47.6688C120.572 47.6595 120.56 47.657 120.554 47.6572C120.551 47.6572 120.548 47.6585 120.545 47.6597C120.542 47.661 120.535 47.6642 120.525 47.6727L118.459 49.4883C118.218 49.6998 117.887 49.7762 117.578 49.6908L112.504 48.2848C111.667 48.0527 111.555 46.9115 112.331 46.5209L127.465 38.9058Z" fill="#EAEAEA" stroke="#CECECE" stroke-width="0.9"/>
<path id="Vector 973" d="M125.897 42.1356L118.957 48.5131L120.519 49.413L125.897 42.1356Z" fill="#CECECE"/>
</g>
</g>
</svg>
